<svg width="22" height="31" viewBox="0 0 22 31" fill="none" xmlns="http://www.w3.org/2000/svg">
<path fill-rule="evenodd" clip-rule="evenodd" d="M15.6383 5.08562C15.6383 7.89433 13.3614 10.1712 10.5527 10.1712C7.74398 10.1712 5.46707 7.89433 5.46707 5.08562C5.46707 2.27691 7.74398 0 10.5527 0C13.3614 0 15.6383 2.27691 15.6383 5.08562ZM6.35703 11.4426C2.84614 11.4426 0 14.2888 0 17.7997V25.6824H3.87761C3.85099 25.4394 3.83733 25.1926 3.83733 24.9426C3.83733 21.2338 6.84389 18.2273 10.5527 18.2273C14.2614 18.2273 17.268 21.2338 17.268 24.9426C17.268 25.1926 17.2543 25.4394 17.2277 25.6824H21.1053V17.7997C21.1053 14.2888 18.2592 11.4426 14.7483 11.4426H6.35703ZM12.7077 27.8619L14.1288 27.8372C14.7706 27.0452 15.1574 26.0384 15.1603 24.9391C15.1603 24.8939 15.157 24.8497 15.1538 24.8053C15.1516 24.7745 15.1493 24.7437 15.1482 24.7123L13.8922 23.9784L14.2727 22.2349C13.6839 21.4303 12.8487 20.8224 11.8725 20.5312L10.5555 21.489L9.23857 20.5312C8.26236 20.8224 7.4243 21.4303 6.83777 22.2349L7.21881 23.9813L5.95999 24.7152C5.95885 24.7445 5.9567 24.7743 5.95452 24.8044C5.95124 24.8499 5.9479 24.8961 5.9479 24.9425C5.9479 26.0384 6.33413 27.0452 6.97591 27.8372L8.39705 27.8619L8.82126 29.2065C9.35541 29.4247 9.93849 29.5473 10.5526 29.5473C11.1662 29.5473 11.7499 29.4247 12.2834 29.2065L12.7077 27.8619ZM4.79682 24.9425C4.79682 21.7682 7.37835 19.1866 10.5527 19.1866C13.7266 19.1866 16.3087 21.7682 16.3087 24.9425C16.3087 28.1164 13.7266 30.6985 10.5527 30.6985C7.37835 30.6985 4.79682 28.1164 4.79682 24.9425ZM9.05538 27.001L8.13155 24.1541L10.5525 22.3963L12.9734 24.1541L12.0496 27.001H9.05538Z" fill="#8F8F8F"/>
</svg>
