<svg width="31" height="25" viewBox="0 0 31 25" fill="none" xmlns="http://www.w3.org/2000/svg">
<path fill-rule="evenodd" clip-rule="evenodd" d="M15.3174 8.04557C17.5391 8.04557 19.3402 6.24451 19.3402 4.02279C19.3402 1.80106 17.5391 0 15.3174 0C13.0957 0 11.2946 1.80106 11.2946 4.02279C11.2946 6.24451 13.0957 8.04557 15.3174 8.04557ZM6.97005 14.0798C6.97005 11.3026 9.22138 9.05132 11.9985 9.05132H18.6361C21.4133 9.05132 23.6646 11.3026 23.6646 14.0798V20.3151H20.5974C20.6185 20.123 20.6293 19.9277 20.6293 19.7299C20.6293 16.7963 18.251 14.418 15.3174 14.418C12.3837 14.418 10.0055 16.7963 10.0055 19.7299C10.0055 19.9277 10.0163 20.123 10.0373 20.3151H6.97005V14.0798ZM4.95259 7.05013C6.27076 7.05013 7.33935 5.98154 7.33935 4.66337C7.33935 3.3452 6.27076 2.27661 4.95259 2.27661C3.63441 2.27661 2.56582 3.3452 2.56582 4.66337C2.56582 5.98154 3.63441 7.05013 4.95259 7.05013ZM28.0688 4.66337C28.0688 5.98154 27.0002 7.05013 25.682 7.05013C24.3639 7.05013 23.2953 5.98154 23.2953 4.66337C23.2953 3.3452 24.3639 2.27661 25.682 2.27661C27.0002 2.27661 28.0688 3.3452 28.0688 4.66337ZM21.369 8.78435C21.9153 8.0916 22.7622 7.64689 23.7129 7.64689H27.6511C29.2988 7.64689 30.6345 8.98263 30.6345 10.6303V14.3298H24.5899V13.8463C24.5899 11.6067 23.2718 9.67487 21.369 8.78435ZM9.26558 8.78439C8.71925 8.09161 7.87237 7.64689 6.92161 7.64689H2.98346C1.33574 7.64689 0 8.98263 0 10.6303V14.3298H6.04475V13.8463C6.04475 11.6067 7.36283 9.67492 9.26558 8.78439ZM17.0217 22.0392L18.1458 22.0196C18.6535 21.3931 18.9595 20.5968 18.9617 19.7272C18.9617 19.6914 18.9592 19.6565 18.9566 19.6214C18.9549 19.597 18.9531 19.5726 18.9522 19.5478L17.9587 18.9673L18.2597 17.5882C17.7939 16.9516 17.1332 16.4708 16.3611 16.2405L15.3193 16.9981L14.2776 16.2405C13.5054 16.4708 12.8425 16.9516 12.3785 17.5882L12.6799 18.9695L11.6842 19.55C11.6833 19.5733 11.6816 19.5968 11.6799 19.6206C11.6773 19.6566 11.6746 19.6932 11.6746 19.7299C11.6746 20.5968 11.9802 21.3931 12.4878 22.0196L13.6119 22.0392L13.9475 23.1027C14.37 23.2753 14.8312 23.3723 15.317 23.3723C15.8024 23.3723 16.2641 23.2753 16.6861 23.1027L17.0217 22.0392ZM10.7642 19.7299C10.7642 17.2189 12.8062 15.1769 15.3172 15.1769C17.8277 15.1769 19.8702 17.2189 19.8702 19.7299C19.8702 22.2404 17.8277 24.2829 15.3172 24.2829C12.8062 24.2829 10.7642 22.2404 10.7642 19.7299ZM14.1327 21.3581L13.402 19.1062L15.317 17.7157L17.2319 19.1062L16.5012 21.3581H14.1327Z" fill="#8F8F8F"/>
</svg>
